<svg width="34" height="34" viewBox="0 0 34 34" fill="none" xmlns="http://www.w3.org/2000/svg">
<path d="M9.22406 31.709H27.6517C28.2779 31.709 28.7901 31.2109 28.7901 30.5706C28.7901 30.0725 28.4487 29.6313 27.9933 29.4748C26.2003 28.7633 25.8303 26.4438 27.5949 24.6651C28.1356 24.1244 28.7901 23.4272 28.7901 22.0041V5.68243C28.7901 2.72261 27.3245 1.21423 24.3789 1.21423H9.26674C6.32115 1.21423 4.85547 2.70838 4.85547 5.68243V27.3119C4.85547 30.2432 6.33538 31.709 9.22406 31.709ZM9.35211 29.418C7.9149 29.418 7.14649 28.6496 7.14649 27.2977C7.14649 26.017 8.0572 25.1916 9.48019 25.1916H24.08C24.2651 25.1916 24.4358 25.1774 24.5781 25.1489C23.9093 26.6289 24.0232 28.1942 24.7773 29.418H9.35211ZM8.92522 23.0286C8.48409 23.0286 8.11411 22.6588 8.11411 22.2034V4.23098C8.11411 3.77562 8.48409 3.41987 8.92522 3.41987C9.36635 3.41987 9.75056 3.77562 9.75056 4.23098V22.2034C9.75056 22.6588 9.36635 23.0286 8.92522 23.0286Z" fill="#FF9500"/>
</svg>
