<svg width="34" height="34" viewBox="0 0 34 34" fill="none" xmlns="http://www.w3.org/2000/svg">
<path d="M27.7626 30.0014C28.4029 30.0014 28.9294 29.4892 28.9294 28.863C28.9294 28.2227 28.4029 27.6962 27.7626 27.6962H26.0265V18.2618C26.0265 13.0679 22.0279 9.05503 16.834 9.05503C11.6543 9.05503 7.65569 13.0679 7.65569 18.2618V27.6962H5.89118C5.26507 27.6962 4.76702 28.2227 4.76702 28.863C4.76702 29.4892 5.26507 30.0014 5.89118 30.0014H27.7626ZM18.0293 18.3045V27.6962H15.6671V18.3045C15.6671 17.65 16.1794 17.1091 16.834 17.1091C17.4885 17.1091 18.0293 17.65 18.0293 18.3045ZM3.94168 19.2863C4.6105 19.2863 5.19391 18.7314 5.19391 18.0768C5.19391 17.3937 4.6105 16.8388 3.94168 16.8388H1.20954C0.554966 16.8388 0 17.4079 0 18.0768C0 18.7172 0.554966 19.2863 1.20954 19.2863H3.94168ZM6.85882 9.82345C7.32841 10.293 8.11105 10.3073 8.58064 9.82345C9.06445 9.33964 9.05022 8.57121 8.58064 8.10164L6.6596 6.16636C6.20425 5.68255 5.40736 5.68255 4.92355 6.16636C4.45396 6.65018 4.45396 7.40437 4.92355 7.88818L6.85882 9.82345ZM15.6102 5.1845C15.6102 5.8533 16.1652 6.4225 16.834 6.4225C17.517 6.4225 18.072 5.8533 18.072 5.1845V2.45236C18.072 1.78355 17.5028 1.21436 16.834 1.21436C16.1652 1.21436 15.6102 1.78355 15.6102 2.45236V5.1845ZM25.0731 8.10164C24.6035 8.57121 24.5893 9.33964 25.0731 9.82345C25.5712 10.3073 26.3253 10.293 26.7949 9.82345L28.7444 7.88818C29.214 7.40437 29.214 6.65018 28.7444 6.16636C28.2463 5.68255 27.4922 5.68255 27.0226 6.16636L25.0731 8.10164ZM32.4443 19.2863C33.113 19.2863 33.6822 18.7172 33.6822 18.0768C33.6822 17.4079 33.113 16.8388 32.4443 16.8388H29.7121C29.0575 16.8388 28.4882 17.3937 28.4882 18.0768C28.4882 18.7314 29.0575 19.2863 29.7121 19.2863H32.4443Z" fill="#FF9500"/>
</svg>
